<svg width="173" height="51" viewBox="0 0 173 51" fill="none" xmlns="http://www.w3.org/2000/svg">
<g clip-path="url(#clip0_1_6)">
<path d="M118.253 43.2779C118.322 42.377 118.07 41.5854 117.572 40.8365C117.064 40.0739 116.811 39.2501 117.193 38.3417L117.254 38.1349C117.478 37.3164 117.376 36.5601 116.765 35.9324C116.308 35.4599 116.182 34.9179 116.316 34.2944C116.493 33.475 116.435 32.7154 115.937 31.9807C115.506 31.3432 115.431 30.6394 115.774 29.8852C116.063 29.2522 116.253 28.5685 116.436 27.8947C116.579 27.3697 116.58 26.8139 116.38 26.303C116.218 25.8862 116.26 25.5079 116.36 25.0977C116.467 24.665 116.527 24.2183 116.585 23.7758C116.631 23.4353 116.516 23.1342 116.26 22.9005C115.923 22.5942 115.806 22.2129 115.862 21.779C115.93 21.2807 116.027 20.788 115.764 20.3081C115.718 20.2246 115.745 20.0961 115.752 19.9889C115.817 19.1233 115.597 18.3176 115.254 17.5334C115.058 17.0814 114.975 16.6058 115.026 16.1141C115.126 15.1597 115.065 14.2073 114.898 13.2721C114.718 12.2662 114.433 11.2806 114.22 10.28C114.145 9.93396 114.097 9.5699 114.118 9.21957C114.162 8.505 114.249 7.79163 114.345 7.08033C114.462 6.22319 114.673 5.39196 115.046 4.60139C115.404 3.83655 115.735 3.05885 116.067 2.28218C116.186 2.0015 116.287 1.71121 116.359 1.41543C116.445 1.05978 116.441 0.700863 116.224 0.377464C115.935 -0.0521342 115.555 -0.132427 115.177 0.227516C114.869 0.524152 114.577 0.862821 114.371 1.2334C113.965 1.96186 113.498 2.63663 112.935 3.25272C112.543 3.68232 112.376 4.19444 112.352 4.7793C112.308 5.91592 112.046 6.98082 111.216 7.84087C110.979 8.08621 110.772 8.3626 110.581 8.64534C110.388 8.92602 110.186 9.21631 110.077 9.53233C109.817 10.2767 109.534 11.0267 109.401 11.8001C109.225 12.8295 108.953 13.8259 108.677 14.8308C108.448 15.6653 108.057 16.3508 107.467 16.953C107.094 17.3344 106.832 17.7865 106.669 18.2856C106.474 18.8833 106.303 19.4875 106.14 20.0951C106.066 20.3714 106.015 20.6574 105.989 20.9412C105.863 22.2995 105.764 23.6602 105.625 25.0152C105.591 25.3365 105.62 25.6934 105.396 25.9847L105.3 25.9013C104.941 25.4117 104.898 24.845 104.842 24.2665C104.715 22.9103 104.576 21.5573 104.631 20.1915C104.647 19.779 104.631 19.3656 104.644 18.9531C104.654 18.6157 104.512 18.365 104.255 18.1636C104.157 18.0876 104.055 18.0169 103.941 17.9332C103.962 17.6793 103.982 17.4296 104.002 17.1812C104.048 16.5749 103.965 16.0115 103.57 15.5026C103.428 15.3226 103.367 15.0377 103.369 14.8019C103.374 14.1936 103.432 13.584 103.48 12.9765C103.518 12.473 103.335 12.0638 102.981 11.7179C102.891 11.6311 102.773 11.5604 102.708 11.4587C102.606 11.3001 102.459 11.1169 102.469 10.952C102.5 10.3639 102.552 9.77149 102.668 9.19521C102.759 8.7409 102.967 8.3113 103.098 7.86352C103.333 7.05356 103.579 6.24704 103.765 5.42541C103.86 5.00542 103.65 4.71188 103.293 4.55249C102.952 4.39705 102.667 4.43446 102.393 4.80418C101.923 5.43845 101.484 6.09932 101.084 6.77734C100.908 7.07827 100.836 7.44679 100.757 7.79404C100.626 8.37684 100.486 8.95639 100.047 9.39765C99.5727 9.87546 99.3136 10.4571 99.1451 11.0924C99.1181 11.1974 99.0638 11.2958 99.0013 11.448C98.7053 10.6918 98.5844 10.6178 97.9427 10.7698C97.9199 10.6671 97.9114 10.5588 97.8715 10.4634C97.6933 10.036 97.3542 9.96965 97.0343 10.3112C96.9004 10.4528 96.7643 10.6154 96.6983 10.7944C96.451 11.4683 96.2015 12.1432 96.0081 12.8319C95.8159 13.5228 95.7186 14.2396 95.5318 14.9315C95.1192 16.4548 94.8156 18.0102 94.1533 19.4608C94.0724 19.6375 94.0419 19.8389 94.0054 20.0317C93.8132 21.0699 93.8425 22.1025 94.0637 23.1342C94.3284 24.3617 94.3026 25.5958 94.1092 26.83C93.9861 27.628 93.5141 28.2439 93.0053 28.8342C92.1995 29.7672 91.8473 30.8405 91.9478 32.0692C91.9962 32.667 92.1239 33.235 92.3668 33.7846C92.7884 34.7335 92.9437 35.705 92.5624 36.7111C92.4986 36.8784 92.4522 37.0563 92.4306 37.2328C92.3733 37.6786 92.3561 38.1157 92.5602 38.5516C92.6759 38.8013 92.7277 39.1012 92.7297 39.3796C92.7373 40.4756 92.7114 41.5705 92.7091 42.6663C92.7081 42.8602 92.7448 43.0595 92.7979 43.247C92.8725 43.5191 93.0321 43.742 93.3252 43.8093C93.6425 43.8822 93.8371 43.6765 94.0011 43.455C94.2949 43.0575 94.5023 42.6181 94.5521 42.1241C94.6429 41.2361 94.9369 40.4157 95.2867 39.6025C95.4444 39.2321 95.5093 38.8066 95.5361 38.4017C95.588 37.6068 95.4119 36.8314 95.2455 36.0578C95.2045 35.8682 95.1744 35.6613 95.2076 35.4739C95.373 34.5516 95.7285 33.6977 96.4361 33.0681C97.0182 32.5464 97.2602 31.957 97.1599 31.2052C97.1371 31.0263 97.1511 30.842 97.1132 30.6674C96.9935 30.1264 97.0648 29.6047 97.1867 29.0712C97.3532 28.3374 97.541 27.5993 97.6026 26.8527C97.7052 25.6129 97.919 24.4005 98.213 23.1963C98.4181 22.3606 98.4214 21.5314 98.1211 20.7055C97.8294 19.902 97.8554 19.088 98.1374 18.2749C98.2778 17.8688 98.3555 17.4425 98.4905 17.0343C98.6396 16.5823 98.7434 16.1024 99.1669 15.6428C99.2013 15.9032 99.2489 16.0713 99.2415 16.2352C99.2122 16.773 99.1743 17.3097 99.1203 17.8433C99.0524 18.5364 99.2015 19.1309 99.8215 19.537C100.097 19.7157 100.238 19.9741 100.292 20.2912C100.346 20.6094 100.507 20.9093 100.783 21.0347C101.435 21.3336 101.544 21.8895 101.605 22.4927L101.621 22.6533C101.75 23.7266 101.94 24.7733 102.478 25.7459C102.695 26.1381 102.724 26.6361 102.82 27.0892C102.885 27.386 102.858 27.7129 102.973 27.986C103.198 28.529 103.161 29.0681 103.103 29.627C102.986 30.8173 103.31 31.505 104.372 31.7139C104.635 31.7652 104.782 31.9239 104.807 32.1928C104.834 32.4596 104.869 32.7262 104.904 32.993C104.995 33.6893 105.104 34.3835 105.542 34.9683C105.798 35.3101 106.126 35.5074 106.574 35.4045C106.944 35.3187 107.249 34.9448 107.29 34.4897C107.329 34.0783 107.363 33.6626 107.339 33.2524C107.274 32.1339 107.605 31.1303 108.142 30.1661C108.295 29.8907 108.416 29.5737 108.459 29.2628C108.537 28.6961 108.564 28.12 108.581 27.5466C108.613 26.5119 108.801 25.5446 109.64 24.8215L109.749 24.7014C110.503 23.6773 110.93 22.5707 110.665 21.2766C110.463 20.2826 110.637 19.3141 110.904 18.3564C110.956 18.1689 111.033 17.9879 111.1 17.8036C111.192 18.0244 111.192 18.2216 111.192 18.4185C111.193 19.0271 111.381 19.5445 111.909 19.9077C112.041 19.9986 112.153 20.123 112.259 20.245C112.521 20.5461 112.66 20.8856 112.546 21.2885C112.44 21.6686 112.333 22.048 112.216 22.4261C111.989 23.1621 111.658 23.8841 111.549 24.636C111.394 25.703 111.447 26.7881 111.866 27.8198C111.952 28.033 112.038 28.261 112.052 28.4871C112.08 29.0068 112.095 29.5306 112.062 30.0491C111.946 31.7973 112.427 33.3484 113.567 34.692C113.863 35.039 113.888 35.4043 113.778 35.8447C113.628 36.4488 113.528 37.0712 113.48 37.6916C113.427 38.358 113.705 38.8807 114.374 39.1357L114.467 39.2322C114.467 39.5707 114.471 39.9295 114.465 40.2872C114.46 40.7628 114.619 41.1732 114.982 41.4849C115.267 41.7314 115.56 41.9809 115.882 42.1737C116.212 42.3719 116.311 42.6258 116.264 42.9857C116.218 43.3232 116.201 43.6638 116.178 44.0045C116.16 44.2903 116.232 44.5422 116.511 44.6868C116.769 44.8206 116.958 44.6654 117.152 44.5271L117.256 44.5207L117.325 44.5959C117.642 44.9119 117.846 44.9653 118.126 44.8067C118.404 44.6482 118.463 44.4169 118.361 44.0141C118.301 43.7741 118.234 43.5191 118.253 43.2779Z" fill="#11B0C8"/>
<path d="M31.7791 45.3499C31.6732 44.6847 31.399 44.0848 30.9193 43.5855C30.3425 42.9804 29.9903 42.281 29.9363 41.4302C29.8736 40.4531 29.3088 39.8092 28.4144 39.4664C28.1205 39.353 27.912 39.1998 27.7717 38.9341C27.6042 38.6168 27.4131 38.3085 27.2738 37.9797C27.0967 37.5629 26.7877 37.2824 26.3718 37.1911C25.8867 37.0829 25.6729 36.7905 25.5659 36.3609C25.526 36.2034 25.472 36.0492 25.4481 35.8895C25.2852 34.8601 24.7179 34.1059 23.8278 33.5852C23.5438 33.4181 23.4022 33.1856 23.2683 32.8974C22.996 32.3136 22.7476 31.6911 22.3457 31.2027C21.7731 30.5073 21.0527 29.9717 20.0351 30.3702L19.9066 30.3349C19.7836 30.0789 19.6722 29.794 19.5167 29.5345C19.1364 28.9058 18.888 28.8502 18.2506 29.2144L18.1633 29.2197C18.1081 29.1062 18.0488 28.9807 17.9861 28.8555C17.768 28.4228 17.5723 27.9759 17.3241 27.5604C17.1014 27.1874 16.8326 26.849 16.3065 26.8736C16.1726 26.8799 16.0331 26.7557 15.7966 26.6456C16.0613 26.4632 16.1983 26.3422 16.3561 26.2652C16.8476 26.0219 17.2192 25.6683 17.405 25.1542C17.4893 24.9227 17.646 24.7942 17.8565 24.7299C18.1147 24.6516 18.3804 24.5822 18.6484 24.5585C19.37 24.4941 19.8485 24.0678 20.1995 23.5065C20.5614 22.9279 20.8282 22.2938 20.9406 21.6103C20.9979 21.2567 21.0605 20.9354 21.4278 20.7202C21.6017 20.6185 21.7098 20.3495 21.7734 20.1354C21.8513 19.8633 21.8849 19.5685 21.8816 19.2858C21.8762 18.7941 22.0004 18.3828 22.3568 18.0164C23.0094 17.3512 23.1939 16.5284 23.0417 15.6253C22.9185 14.8958 22.8409 14.1812 23.1142 13.4517C23.4393 12.5882 23.2318 11.8201 22.4876 11.2385C22.2597 11.0606 22.1753 10.8647 22.2142 10.5916C22.2379 10.4318 22.2542 10.2701 22.2616 10.1084C22.2876 9.55463 22.3199 9.00082 22.3232 8.44598C22.3232 8.2938 22.2691 8.11383 22.1774 7.99271C21.5304 7.14106 21.0107 6.8808 20.0979 7.19682C19.9099 7.26219 19.7208 7.33407 19.5265 7.36392C19.2122 7.41522 19.1009 7.31468 19.0674 7.00072C19.0437 6.76928 19.0404 6.53372 18.9928 6.30657C18.8977 5.82996 18.6202 5.59852 18.1264 5.57279C17.947 5.56301 17.7624 5.57176 17.5863 5.60607C17.0409 5.7121 16.572 5.6222 16.1291 5.24922C15.8181 4.98466 15.4335 4.8004 15.0652 4.60979C14.4246 4.27764 13.7646 3.98204 13.1283 3.64234C12.7352 3.43029 12.328 3.31877 11.886 3.30281C11.6699 3.29424 11.4474 3.32426 11.2357 3.28669C10.5336 3.16144 9.96637 3.41536 9.42851 3.83209C8.82906 4.296 8.21872 4.7479 7.59211 5.17544C6.76898 5.73783 5.87786 6.01954 4.87428 5.70146L4.66253 5.65857C4.25425 5.5311 3.88576 5.63609 3.51104 5.80955C2.90727 6.09023 2.40488 6.49083 1.97602 6.98682C1.7243 7.27934 1.46826 7.39069 1.07936 7.21398C0.733702 7.05854 0.533887 7.12287 0.36971 7.39189C-0.0233456 8.03577 -0.27731 9.09947 0.538212 9.86637C0.670038 9.98955 0.801864 10.1129 0.941302 10.2273C1.50632 10.6912 1.58279 11.2739 1.37432 11.9327C1.28367 12.223 1.18316 12.5145 1.12918 12.8121C0.909816 14.0386 1.00618 15.1785 2.06044 16.0538C2.28067 16.2361 2.46872 16.4642 2.64483 16.6912C2.96021 17.0973 3.19791 17.529 3.05432 18.0807C2.9462 18.4962 2.89984 18.9269 2.79396 19.3415C2.70417 19.6919 2.70417 20.0077 2.91281 20.3207C2.98737 20.432 3.04031 20.5916 3.02734 20.7202C2.99291 21.0565 3.06522 21.3597 3.21106 21.6575C3.3678 21.9756 3.3806 22.2918 3.27922 22.6452C3.1128 23.2215 3.17664 23.7828 3.58595 24.268C3.76086 24.4748 3.91863 24.6933 4.09354 24.9001C4.3539 25.2065 4.48244 25.5311 4.3603 25.9425C4.22207 26.4074 4.29439 26.8509 4.50614 27.2975C4.95559 28.2476 5.24727 29.2547 5.2516 30.3078C5.25264 30.9047 5.3099 31.529 4.94919 32.083C4.64454 32.5491 4.81841 33.0192 5.12946 33.3747C5.56161 33.8696 5.76368 34.4513 5.97958 35.0428C6.08113 35.3225 6.05743 35.5604 5.89862 35.8078C5.42218 36.5522 5.39623 37.3514 5.58964 38.1914C5.72579 38.7815 5.99359 39.3065 6.31762 39.8036C6.54875 40.158 6.72262 40.5245 6.78749 40.9379C6.84164 41.2893 6.98194 41.5839 7.26289 41.8174C7.35147 41.8913 7.4378 42.0157 7.44749 42.126C7.50579 42.7107 7.64626 43.2874 7.47672 43.8873C7.3039 44.4967 7.44645 44.8203 8.00714 45.1512C8.38307 45.3729 8.5213 45.6881 8.54292 46.0821C8.55918 46.3863 8.5386 46.6939 8.55382 46.9981C8.5841 47.5358 8.74931 48.0212 9.18146 48.3813C9.37695 48.5441 9.58767 48.7112 9.86412 48.5954C10.1459 48.4798 10.2606 48.2291 10.266 47.9441C10.2734 47.6046 10.2574 47.2616 10.2347 46.9221C10.1958 46.3299 10.2174 45.7675 10.831 45.4331L10.9109 45.3612C11.5549 44.7283 11.6218 44.0639 11.1746 43.2776C10.8462 42.6991 10.6961 42.0852 10.9898 41.4266C11.1054 41.1672 11.2018 40.8812 11.2222 40.6006C11.2405 40.3263 11.2156 40.0146 11.0959 39.7747C10.8635 39.312 10.558 38.8835 10.2695 38.4485C9.81689 37.7673 9.56085 37.0722 10.048 36.2964L10.115 36.1497C10.5772 35.3132 10.6182 34.4775 10.0956 33.6495C9.93574 33.3965 9.91516 33.1535 10.0946 32.8986C10.4283 32.4294 10.3624 31.9601 10.102 31.4801C9.94751 31.1974 9.81361 30.8995 9.70548 30.5974C9.49806 30.0189 9.68611 29.6673 10.3807 29.4232C10.6561 29.7209 10.9532 30.0583 11.2665 30.3809C11.732 30.8585 12.311 31.0428 12.9506 30.8619C13.4324 30.7259 13.7175 30.9241 13.9519 31.2754C14.2014 31.6505 14.4132 32.0488 14.6692 32.4174C14.8733 32.7097 15.0958 32.9979 15.3551 33.2422C15.6262 33.5004 15.838 33.4661 16.1091 33.2067C16.6125 32.7207 16.7205 32.7119 17.2012 33.2079C17.4649 33.4833 17.7489 33.6792 18.1465 33.6324C18.4435 33.5958 18.6326 33.719 18.7503 33.9772C19.002 34.5321 19.272 35.0795 19.5032 35.6419C19.7928 36.3489 20.2713 36.5718 20.9616 36.2825C21.0609 36.2408 21.1583 36.1926 21.2596 36.1518C21.6496 35.9955 21.6895 35.9878 21.9132 36.3627C22.1886 36.8243 22.4404 37.3023 22.6715 37.7885C22.9815 38.4369 23.4913 38.862 24.1795 38.9819C24.5985 39.0559 24.8189 39.2509 24.9874 39.5882C25.075 39.7651 25.1808 39.9345 25.2684 40.1112C25.6746 40.9285 26.1348 41.6913 27.0842 41.9946L27.2657 42.1102C27.7335 42.4316 28.1753 42.7646 28.2066 43.4074C28.239 44.0462 28.5025 44.6223 28.7424 45.2051C28.9066 45.6026 29.1453 45.9229 29.5321 46.1286C29.8465 46.2968 30.0603 46.5474 30.1856 46.8861C30.3055 47.2052 30.4503 47.5169 30.6025 47.8211C30.8153 48.2433 31.2019 48.5058 31.4732 48.435C31.7552 48.361 31.9041 48.0536 31.8901 47.5255C31.8848 47.2941 31.7649 47.0371 31.8329 46.8365C32.0071 46.3235 31.8569 45.8383 31.7791 45.3499ZM15.2982 22.5031C15.1859 22.5738 15.0432 22.6028 14.9104 22.6318C14.6154 22.7003 14.3076 22.7293 14.0213 22.8236C13.6973 22.9309 13.3764 23.0657 13.0783 23.2328C12.8492 23.3625 12.6278 23.5349 12.4626 23.7351C12.2249 24.0254 11.9451 24.2269 11.5626 24.379C11.4329 24.2709 11.3088 24.1433 11.163 24.0459C10.5234 23.6183 10.1368 23.5874 9.6259 23.9676C9.48646 24.0716 9.32333 24.1412 9.04791 24.2955C9.09981 23.957 9.11382 23.7363 9.17109 23.5274C9.22402 23.3388 9.33198 23.1664 9.40221 22.9821C9.61829 22.4165 9.55238 22.1797 9.03165 21.8519C8.81782 21.7181 8.73668 21.5637 8.74222 21.326C8.75087 20.9671 8.74551 20.6072 8.74326 20.2472C8.74118 19.7169 8.52822 19.3206 8.02928 19.0816C7.69436 18.9209 7.66529 18.8052 7.74747 18.4367C7.7992 18.2118 7.84244 17.9804 7.86839 17.7501C7.96026 16.9745 7.56928 16.4346 6.99457 15.9749C6.89631 15.8967 6.7958 15.7478 6.79908 15.6332C6.81206 15.0837 6.62729 14.5341 6.84458 13.9824C6.98177 13.632 6.75808 13.3514 6.5183 13.1252C6.14237 12.7739 6.09809 12.3475 6.19099 11.8869C6.26763 11.4991 6.44703 11.3823 6.83922 11.4358C6.94613 11.452 7.05858 11.454 7.161 11.484C8.05126 11.7508 8.75225 11.4156 9.37228 10.8113C9.47487 10.7106 9.58283 10.613 9.68334 10.5102C10.0236 10.1609 10.4438 10.0378 10.9193 10.0872C11.226 10.1182 11.5284 10.191 11.8342 10.2071C12.2296 10.2285 12.625 10.2136 13.0657 10.2136C13.9298 11.77 14.3004 11.9565 15.6312 11.4765C15.951 11.7968 16.3106 12.0873 16.0762 12.6527C15.9693 12.9132 16.0665 13.1906 16.2534 13.408C16.5104 13.7091 16.7675 14.0112 17.0495 14.2886C17.2407 14.4782 17.474 14.6261 17.6934 14.7965C17.5529 15.0267 17.486 15.1488 17.4071 15.2614C17.0864 15.721 17.0225 16.0424 17.3715 16.4387C17.8533 16.9839 17.6005 17.5581 17.5723 18.1313L17.5043 18.2727C17.1609 18.6563 16.8108 19.0365 16.4684 19.4212C16.1293 19.8015 16.0278 20.2771 15.9499 20.7559C15.9046 21.0387 15.8885 21.3271 15.843 21.6108C15.7831 21.9782 15.6266 22.2995 15.2982 22.5031Z" fill="#11B0C8"/>
<path d="M172.643 22.1442C172.389 22.0222 172.146 22.0799 171.908 22.1818C171.296 22.4443 170.675 22.6917 170.08 22.9885C169.695 23.1791 169.289 23.3913 169 23.6934C168.093 24.6425 166.788 24.9874 165.816 25.8263L165.719 25.8733C164.848 26.2214 163.994 26.621 163.1 26.9007C162.322 27.144 161.521 27.2905 160.996 28.0297C160.983 27.8371 161 27.6806 161.054 27.537C161.214 27.1139 161.141 26.724 160.909 26.3553C160.737 26.0811 160.541 25.8208 160.371 25.5455C160.288 25.4137 160.187 25.2595 160.189 25.1179C160.198 24.7655 160.04 24.5096 159.841 24.2395C159.714 24.0628 159.609 23.824 159.603 23.6107C159.569 22.4999 159.575 21.3888 159.553 20.2791C159.542 19.72 159.299 19.2859 158.804 18.9883C158.661 18.9015 158.5 18.7515 158.458 18.6016C158.157 17.5163 157.498 16.5425 157.449 15.3803C157.442 15.2571 157.405 15.1306 157.361 15.015C157.005 14.0937 156.662 13.1671 156.275 12.2599C156.115 11.8848 155.866 11.541 155.623 11.2078C155.53 11.0834 155.301 10.9347 155.195 10.9721C155.04 11.0246 154.867 11.2217 154.836 11.3825C154.779 11.675 154.813 11.9855 154.825 12.2899C154.855 13.2187 154.893 14.1496 154.929 15.0944C154.34 15.2252 154.197 15.6151 154.23 16.0821C154.276 16.7068 154.349 17.328 154.421 17.9493C154.462 18.3049 154.554 18.6565 154.564 19.012C154.584 19.7114 154.572 20.4131 154.56 21.1126C154.547 21.8968 154.676 22.6553 155.016 23.3623C155.299 23.9556 155.475 24.5684 155.504 25.2219C155.52 25.5616 155.539 25.9034 155.528 26.2431C155.518 26.5793 155.641 26.8439 155.902 27.0402C156.083 27.1762 156.291 27.2778 156.592 27.4579C156.357 28.3051 156.139 29.1741 155.871 30.0288C155.616 30.8494 155.269 31.6367 155.505 32.541C155.613 32.9492 155.448 33.1165 155.037 33.2566C154.782 33.3446 154.514 33.4014 154.261 33.4987C153.605 33.7525 152.938 33.9851 152.307 34.2937C151.763 34.5605 151.732 34.9021 152.116 35.3724L152.2 35.4913L152.137 35.592C152.015 35.6669 151.89 35.7387 151.761 35.804C150.941 36.225 150.279 36.8314 149.695 37.5255C149.298 37.9968 149.292 38.314 149.614 38.7949C149.989 39.353 149.98 39.5395 149.484 39.9839C148.881 40.526 148.263 41.0522 147.643 41.5737C147.362 41.8105 147.125 42.0644 146.995 42.418C146.952 42.5367 146.847 42.6793 146.736 42.7191C146.079 42.9557 145.669 43.4388 145.349 44.0206C145.065 44.5391 144.685 44.9611 144.153 45.2344C143.866 45.3809 143.552 45.4808 143.27 45.6373C142.01 46.3367 140.975 47.3222 139.944 48.3035C139.708 48.5286 139.568 48.8682 139.431 49.1756C139.288 49.4937 139.219 49.8344 139.551 50.1075C139.831 50.3368 140.165 50.338 140.561 50.1065L140.783 49.9523C141.517 49.3407 142.24 48.7162 142.986 48.1193C143.263 47.8974 143.574 47.6811 143.905 47.572C144.553 47.3577 145.224 47.2045 145.894 47.0556C146.618 46.8928 147.247 46.5992 147.772 46.0528C148.47 45.3243 149.209 44.6345 149.934 43.9307C150.049 43.8194 150.174 43.7068 150.311 43.6255C150.78 43.3448 151.122 42.9463 151.319 42.4566C151.667 41.5868 152.246 40.8798 152.845 40.1824C153.114 39.8684 153.412 39.576 153.663 39.247C153.822 39.0392 153.967 38.7963 154.03 38.5453C154.229 37.7696 154.676 37.2021 155.342 36.7692C156.264 36.1672 157.169 35.5448 158.087 34.9354C158.489 34.6696 158.783 34.3215 159.001 33.893C159.138 33.6241 159.313 33.3671 159.508 33.1346C160.067 32.465 160.783 32.0516 161.629 31.805C162.985 31.4097 163.95 30.525 164.56 29.2705C164.72 28.9428 164.963 28.721 165.257 28.5432C165.455 28.4211 165.673 28.3224 165.892 28.2411C166.529 28.0031 167.072 27.6272 167.581 27.1848C167.88 26.9255 168.195 26.6696 168.542 26.4863C169.592 25.9358 170.519 25.2223 171.377 24.4188C171.878 23.9518 172.355 23.4581 172.821 22.9576C173.119 22.6392 173.034 22.3317 172.643 22.1442Z" fill="#11B0C8"/>
<path d="M84.414 31.8392C84.1126 31.1236 83.8446 30.4068 83.8933 29.6066C83.9268 29.0549 83.8792 28.499 83.8998 27.9462C83.9161 27.4995 83.9334 27.0452 84.0337 26.6125C84.2119 25.8454 84.4463 25.0891 84.67 24.3327C84.7749 23.9803 84.7522 23.6461 84.5209 23.3634C84.1925 22.9595 84.1569 22.5074 84.2682 22.0404C84.4066 21.4662 84.5924 20.9018 84.7458 20.3306C84.8008 20.1261 84.8634 19.9108 84.8527 19.7029C84.8365 19.3484 84.6949 19.0204 84.3406 18.8759C83.9625 18.7205 83.6244 18.8651 83.3651 19.1533C83.1869 19.3517 83.0011 19.569 82.9049 19.8123C82.7342 20.243 82.6122 20.6961 82.4997 21.1471C82.2806 22.0308 82.0816 22.9211 81.8733 23.807L81.801 24.0095C81.3754 24.6607 81.2275 25.3935 81.128 26.1467C81.0773 26.5375 80.8687 26.7948 80.4983 27.0122C79.9625 27.3284 79.4634 27.73 79.0173 28.1638C78.5938 28.5743 78.2547 29.0701 77.881 29.5298C77.8917 29.216 77.8746 28.8975 77.9296 28.5935C78.1218 27.5372 78.3445 26.4852 78.5507 25.429C78.6533 24.902 78.7647 24.3727 78.8316 23.8403C78.865 23.5629 78.8609 23.2587 78.7809 22.9942C78.6815 22.6673 78.4806 22.3642 78.0754 22.3396C77.6898 22.3139 77.4263 22.5227 77.2404 22.8389C77.1777 22.9472 77.1226 23.0618 77.075 23.1774C76.5998 24.3463 76.1276 25.516 75.6221 26.7641C75.4536 26.0014 75.1393 25.4474 74.2762 25.6436C73.9738 25.1454 73.8992 24.628 73.7966 24.1213C73.7146 23.7195 73.5212 23.3853 73.2392 23.093C73.0211 22.8669 72.7446 22.8669 72.483 22.9623C72.2163 23.0609 72.0369 23.2505 72.0369 23.5718C72.0369 23.8386 71.9948 24.1052 71.9753 24.373C71.9428 24.8176 71.8888 25.2633 71.8867 25.7078C71.8857 26.1727 71.9137 26.6409 71.9677 27.1037C72.0486 27.7958 71.622 28.2501 71.2568 28.8008C71.0766 28.4364 70.8961 28.143 70.7816 27.8247C70.7037 27.6117 70.7383 27.3622 70.6887 27.1361C70.6098 26.7868 70.491 26.4471 70.411 26.0979C70.3204 25.6984 70.2468 25.2945 70.1776 24.8927C70.1443 24.6978 70.1539 24.4976 70.1183 24.3046C69.9455 23.3726 69.6765 22.4579 69.6732 21.4969C69.6721 21.1969 69.6289 20.8874 69.5512 20.5971C69.4625 20.2704 69.2173 20.0978 68.9666 20.1546C68.6459 20.2285 68.324 20.3356 68.1511 20.6408C67.9762 20.9515 67.8131 21.2739 67.6899 21.6081C67.5602 21.9607 67.4835 22.3323 67.3865 22.6965C67.3195 22.9514 67.1758 23.1089 66.8906 23.095C66.3689 23.0715 66.1064 23.396 65.9206 23.8127C65.79 24.1085 65.6971 24.4212 65.5457 24.7062C65.1472 25.4635 65.0466 26.2338 65.3762 27.0405C65.4885 27.3157 65.5144 27.5964 65.4098 27.8793C65.0499 28.8529 64.8771 29.8964 64.2939 30.7889C64.1784 30.9656 64.0768 31.1797 64.0595 31.3856C64.0292 31.7337 63.9472 32.1655 64.1081 32.4268C64.3988 32.8907 64.4539 33.3514 64.4398 33.857C64.4354 33.963 64.4507 34.0743 64.4756 34.1773C64.5598 34.5072 64.8212 34.7428 65.1074 34.7578C65.4227 34.7728 65.6172 34.6122 65.735 34.2071C65.8224 33.9115 65.9272 33.6384 66.1595 33.4135C66.4298 33.1498 66.487 32.8027 66.354 32.4632C66.2471 32.1847 66.328 31.978 66.4825 31.7658C66.5993 31.6062 66.7386 31.4575 66.8304 31.2861C66.919 31.1179 67.013 30.926 67.0119 30.7449C67.0066 30.1409 67.3337 29.7102 67.6859 29.242C67.8091 29.3352 67.8826 29.4242 67.9766 29.4574C68.4075 29.604 68.5608 29.9587 68.6809 30.3411C68.8504 30.8896 68.9812 31.4521 69.1929 31.9833C69.4824 32.715 69.8303 33.4232 70.1586 34.1409L70.2925 34.3089C70.4719 34.4974 70.6825 34.5487 70.9342 34.4641C71.2658 34.3559 71.4646 34.132 71.4668 33.7935C71.4689 33.0781 71.4442 32.3613 71.4246 31.6448C71.4137 31.244 71.3869 30.8422 71.3653 30.3795C71.7466 30.5811 71.8967 30.8103 71.8644 31.1552C71.8492 31.3149 71.8774 31.4808 71.8525 31.6383C71.7542 32.2573 72.1602 32.597 72.5687 32.9324C72.7252 33.0599 72.9197 33.0621 73.0688 32.9249C73.4557 32.5671 73.8347 32.2007 73.7603 31.5976C73.7397 31.4413 73.7354 31.271 73.7743 31.1198C73.9245 30.5403 73.8695 29.9832 73.6415 29.4368C73.5657 29.2568 73.5325 29.0844 73.6458 28.8648C73.9093 29.1027 74.1836 29.2707 74.3447 29.514C74.7239 30.0796 75.0587 30.6753 75.3893 31.2708C75.6507 31.7411 75.8721 32.2317 76.1259 32.7063C76.2588 32.9537 76.4555 33.1496 76.7686 33.1208C77.0862 33.0908 77.299 32.9216 77.3876 32.6023C77.4426 32.4021 77.5237 32.2093 77.6037 31.9833L77.6739 32.0603L77.6955 32.2189C77.7396 32.9516 78.1405 33.4027 78.8178 33.6502C79.0543 33.7358 79.2854 33.8388 79.5037 33.9599C80.3895 34.4514 81.3929 34.2682 82.025 33.4895C82.1245 33.3675 82.2184 33.241 82.3588 33.06C82.4183 33.3321 82.4657 33.5389 82.5058 33.7456C82.6094 34.2567 82.8611 34.6861 83.2371 35.0408C83.5915 35.375 84.0742 35.3997 84.4806 35.1265C84.838 34.8855 85.0271 34.5748 84.9892 34.1282C84.9205 33.3315 84.7218 32.573 84.414 31.8392ZM67.152 27.0421C67.4664 26.2119 67.7624 25.4342 68.0572 24.6553L68.1977 24.6906C68.1977 25.0998 68.1383 25.5198 68.2139 25.9151C68.2852 26.2791 68.5023 26.6168 68.6871 27.0419L67.152 27.0421ZM81.2834 31.1021C81.1009 31.2521 80.9637 31.4568 80.7908 31.6218C80.4948 31.9066 80.1243 31.8562 80.066 31.4803C80.011 31.1322 80.1059 30.7561 80.1642 30.3972C80.2215 30.0457 80.3684 29.794 80.7595 29.6387C81.1085 29.4973 81.3839 29.177 81.7868 28.8641C81.8776 29.73 82.02 30.4946 81.2834 31.1021Z" fill="#11B0C8"/>
<path d="M58.8451 15.2646C58.4572 15.329 58.0512 15.3611 57.6914 15.5047C57.2594 15.6761 56.8305 15.9042 56.4632 16.187C55.3645 17.0333 54.2909 17.9138 53.216 18.7912C52.9493 19.0097 52.7169 19.2786 52.3313 19.2422C51.9986 19.2111 51.7296 19.3408 51.4834 19.5368C51.088 19.8495 50.7056 20.1817 50.3058 20.4902C50.1221 20.6317 49.9235 20.7645 49.7107 20.8566C49.3533 21.0131 48.9794 21.134 48.6078 21.2711C48.3584 20.8352 48.3378 20.3798 48.5819 19.9075C48.6814 19.7169 48.7656 19.5102 48.8002 19.3012C48.9028 18.6863 49.0421 18.0735 48.6791 17.4715C48.5701 17.2915 48.6068 17.0227 48.5873 16.7924C48.5613 16.4903 48.6295 16.1453 48.5073 15.8926C48.302 15.4715 48.3776 15.1041 48.5127 14.711C48.5644 14.5578 48.6208 14.4056 48.6628 14.2503C48.8499 13.5658 48.9102 12.8717 48.7675 12.1722C48.6109 11.3965 47.938 11.1545 47.2984 11.6355C47.1828 11.7213 47.0683 11.8069 46.9635 11.8852C46.3218 11.7244 46.1986 11.7416 45.9168 12.1571C45.7904 12.3436 45.6975 12.5771 45.6705 12.7989C45.6348 13.117 45.6834 13.4438 45.6769 13.7672C45.6587 14.77 45.7461 15.7931 45.5764 16.7699C45.3561 18.0361 45.0665 19.3024 44.5913 20.514C44.4487 20.877 44.4055 21.2788 44.3169 21.6623C44.2337 22.0275 44.1732 22.3993 44.063 22.7562C43.8912 23.3196 43.6708 23.8691 43.5002 24.4348C43.4408 24.6341 43.4376 24.8644 43.4635 25.0745C43.5068 25.4214 43.7152 25.67 44.0521 25.7814C44.3557 25.8821 44.5771 25.7258 44.7619 25.5062C44.98 25.2437 45.1918 24.9759 45.4153 24.7156C45.5115 24.6041 45.626 24.5087 45.7327 24.406L45.8613 24.4777C45.7857 24.7819 45.7047 25.0872 45.6345 25.3948C45.5815 25.6198 45.5103 25.848 45.507 26.0751C45.4961 26.9106 45.3772 27.7067 44.9269 28.4425C44.739 28.7512 44.6319 29.171 44.9518 29.4409C45.3008 29.7366 45.2598 30.059 45.1959 30.4126C44.9961 31.5255 44.793 32.6364 44.5813 33.7463C44.5446 33.9391 44.4851 34.132 44.4008 34.3087C44.1091 34.9162 44.0098 35.5685 43.863 36.2165C43.7064 36.9129 44.0325 37.3543 44.4484 37.7925C44.7001 38.0592 44.9529 38.087 45.2067 37.8266C45.453 37.5749 45.7078 37.2793 45.8116 36.9568C46.0255 36.2884 46.2556 35.6328 46.558 34.9997C46.6336 34.839 46.6756 34.6592 46.7135 34.4856C46.8614 33.8012 47.0008 33.1154 47.1444 32.4307C47.2794 31.7827 47.4157 31.1356 47.57 30.404C48.1468 30.6718 48.4255 30.297 48.7258 29.9413C48.7928 29.86 48.9203 29.8289 49.0498 29.7591C49.1709 30.0782 49.2324 30.3707 49.3858 30.6044C49.5393 30.8367 49.7877 31.0091 49.9896 31.2118L50.1138 31.3873C50.5697 32.224 51.0741 33.049 51.1411 34.0282C51.1831 34.6365 51.489 35.0716 51.9415 35.4316C52.4773 35.8569 52.7809 36.4309 52.9148 37.0673C53.1006 37.9393 53.5435 38.6688 54.0707 39.3523C54.3051 39.6563 54.4163 39.9638 54.4573 40.3302C54.4909 40.6301 54.5179 40.9539 54.6519 41.215C54.8765 41.6534 55.0483 42.0871 55.085 42.5841C55.1109 42.9473 55.4003 43.1636 55.7439 43.169C56.1262 43.1732 56.3133 43.0156 56.4062 42.6033C56.4222 42.5349 56.4245 42.4619 56.4364 42.3549C56.9798 42.3635 57.2487 42.2209 57.3179 41.8074C57.4128 41.2418 57.4744 40.6675 57.2509 40.1074C57.144 39.8406 57.0565 39.5664 56.9658 39.2933C56.4344 37.6906 55.9235 36.0871 55.8349 34.3773C55.8121 33.9734 55.5918 33.5492 55.3661 33.1945C54.9825 32.5947 54.6929 31.9874 54.5786 31.2728C54.4231 30.3064 54.0245 29.9669 53.0532 29.8063C52.6882 29.7452 52.3576 29.6337 52.1275 29.3101C51.6058 28.5765 51.0689 27.8534 50.5418 27.1259C50.4672 27.023 50.41 26.9106 50.3453 26.8024C50.1692 26.5131 50.005 26.2163 49.8169 25.9356C49.4367 25.3647 49.6474 24.693 50.2999 24.4444C50.706 24.2912 51.1144 24.1477 51.5194 23.9935C52.673 23.5553 53.4735 22.8119 53.7728 21.5726C53.9477 20.8539 54.3225 20.2441 55.0787 19.9614C55.231 19.9046 55.3661 19.8061 55.514 19.7397C56.2691 19.3937 56.8124 18.8366 57.1656 18.0963C57.3028 17.8103 57.5263 17.625 57.7663 17.4236C58.2761 16.9962 58.7462 16.5217 59.2191 16.0525C59.3617 15.9121 59.4536 15.7299 59.339 15.5158C59.233 15.3159 59.0612 15.2281 58.8451 15.2646Z" fill="#11B0C8"/>
<path d="M139.767 38.5794C139.946 38.3331 140.004 38.0438 139.917 37.759C139.775 37.2982 139.617 36.8399 139.427 36.3952C139.117 35.6743 138.94 34.9587 139.068 34.15C139.267 32.8773 138.983 31.6678 138.201 30.6329C137.866 30.1906 137.744 29.7716 137.818 29.2456C137.864 28.9114 137.861 28.5676 137.662 28.2538C137.209 27.5392 136.773 26.8151 135.989 26.3834C135.715 26.2335 135.724 25.9109 135.994 25.7322C136.16 25.6239 136.356 25.5671 136.53 25.4707C136.844 25.2983 137.175 25.1418 137.458 24.9255C137.81 24.6554 138.184 24.4658 138.622 24.3833C138.792 24.3511 138.955 24.2622 139.111 24.1788C139.64 23.8961 139.987 23.4428 140.289 22.9425C140.465 22.6512 140.529 22.3458 140.492 22.0147C140.469 21.8006 140.465 21.5798 140.406 21.3753C140.322 21.0882 140.261 20.7528 140.07 20.5471C139.709 20.1561 139.477 19.6965 139.192 19.2648C139.019 19.0003 138.955 18.7956 139.142 18.4902C139.418 18.0424 139.31 17.6429 138.925 17.2829C138.499 16.8887 138.012 16.7108 137.431 16.8415C136.946 16.9496 136.497 16.8362 136.068 16.6198C135.395 16.2791 134.963 16.3124 134.468 16.8652C133.966 17.4276 133.523 18.0436 133.056 18.6371C132.983 18.7301 132.916 18.8287 132.83 18.9466C132.548 18.6894 132.571 18.3799 132.534 18.0843C132.452 17.4265 132.386 16.7655 132.252 16.1185C132.174 15.734 131.912 15.5668 131.609 15.5645C131.277 15.5604 130.97 15.796 130.87 16.1667C130.829 16.3144 130.846 16.4795 130.841 16.637C130.823 17.1009 130.834 17.5669 130.786 18.0285C130.694 18.9188 130.497 19.8037 130.475 20.695C130.451 21.6731 130.306 22.6189 130.096 23.5692C130.026 23.8916 130.063 24.2419 130.084 24.5782C130.112 25.0111 130.372 25.2928 130.747 25.4973C131.213 25.7502 131.325 26.0641 131.125 26.5663C131.013 26.8502 130.86 27.117 130.749 27.402C130.558 27.8906 130.526 28.3938 130.791 28.861C131.077 29.3678 131.086 29.854 130.925 30.409C130.799 30.846 130.747 31.3377 130.806 31.7863C130.882 32.365 130.888 32.9284 130.818 33.4994C130.789 33.7307 130.761 33.9697 130.791 34.1966C130.816 34.3776 130.891 34.5844 131.014 34.7161C131.476 35.2089 132.215 35.092 132.477 34.4526C132.628 34.081 132.69 33.6524 132.696 33.2496C132.707 32.6249 132.835 32.054 133.093 31.482C133.281 31.0663 133.349 30.5907 133.436 30.1364C133.488 29.8622 133.473 29.5773 133.485 29.3748C133.613 29.4692 133.773 29.5785 133.928 29.6962C134.66 30.252 135.188 30.9729 135.639 31.7604C135.808 32.0552 136.004 32.3497 136.246 32.5843C136.764 33.0858 136.962 33.6758 136.928 34.3807C136.911 34.7172 136.914 35.0826 137.03 35.388C137.255 35.9802 137.406 36.5822 137.527 37.2014C137.64 37.7681 137.864 38.3039 138.305 38.7129C138.768 39.143 139.4 39.084 139.767 38.5794ZM135.561 22.9904C135.421 23.2496 135.193 23.4608 134.983 23.7157C134.856 23.6269 134.741 23.5872 134.695 23.508C134.485 23.1503 134.236 22.8363 133.908 22.5695C133.789 22.4721 133.786 22.2353 133.719 22.0274C134.282 21.8979 134.593 21.6021 134.783 21.133C135.106 20.3414 135.287 20.2599 136.369 20.3617C135.574 20.894 135.579 21.5293 135.75 22.2417C135.805 22.4678 135.681 22.7667 135.561 22.9904Z" fill="#11B0C8"/>
<path d="M139.926 25.6762C139.512 25.7843 139.338 26.0705 139.42 26.4797C139.515 26.9552 139.805 27.2243 140.29 27.1814C140.714 27.144 141.058 27.2939 141.432 27.4342C141.995 27.6463 142.425 28.1691 143.128 28.0847C143.084 28.2228 143.073 28.3159 143.029 28.3887C142.746 28.8675 142.641 29.3807 142.624 29.9322C142.615 30.1831 142.491 30.4498 142.358 30.6737C142.18 30.9759 142.123 31.2778 142.214 31.6014C142.287 31.8594 142.37 32.1219 142.502 32.3534C142.658 32.6285 142.667 32.8536 142.532 33.1513C142.244 33.7942 142.166 34.4627 142.523 35.1236C142.581 35.2307 142.626 35.3635 142.621 35.4813C142.581 36.2504 142.643 37.0506 142.448 37.7793C142.175 38.7927 142.151 39.7988 142.175 40.8196C142.185 41.2867 142.282 41.7537 142.576 42.1392C142.858 42.5078 143.209 42.4767 143.444 42.0792C143.498 41.9881 143.527 41.8812 143.559 41.7781C143.718 41.2661 143.875 40.753 144.027 40.2368C144.108 39.9624 144.212 39.6895 144.246 39.4086C144.391 38.2003 144.53 36.9897 144.641 35.7781C144.702 35.1054 144.81 34.4627 145.218 33.8992C145.309 33.7719 145.391 33.6111 145.403 33.4599C145.442 32.9435 145.515 32.4197 145.318 31.914C145.227 31.6827 145.238 31.4619 145.362 31.2435C145.734 30.5869 145.769 29.884 145.679 29.1556C145.637 28.8234 145.642 28.4839 145.626 28.1486L145.758 28.0533C145.946 28.1401 146.169 28.1871 146.315 28.32C146.936 28.8867 147.692 28.9447 148.45 28.8289C148.869 28.7637 149.183 28.8279 149.504 29.0679C149.919 29.3794 150.395 29.5404 150.917 29.5606C151.65 29.5862 151.93 29.3367 151.964 28.633C152.112 28.5269 152.268 28.4338 152.404 28.3169C152.777 27.9944 152.812 27.596 152.463 27.2412C152.292 27.0666 152.069 26.9166 151.839 26.831C151.538 26.7185 151.212 26.6572 150.891 26.6155C150.661 26.5857 150.488 26.5085 150.336 26.3318C150.039 25.9837 149.642 25.8251 149.186 25.8176C148.843 25.8123 148.5 25.8164 148.149 25.8164C147.688 25.1866 147.547 25.1416 146.688 25.2552C146.32 25.3022 145.942 25.3945 145.512 25.208C145.599 24.9316 145.657 24.6499 145.775 24.3991C146.132 23.6451 146.372 22.8554 146.522 22.0435C146.684 21.1598 146.857 20.2846 147.278 19.4767L147.31 19.374C147.404 18.7538 147.422 18.1571 146.886 17.6889C146.458 17.3171 146.448 17.2196 146.732 16.7332C147.023 16.2362 147.339 15.7531 147.603 15.243C147.756 14.9464 147.889 14.6153 147.924 14.2886C147.991 13.632 147.537 13.256 146.871 13.361C146.276 13.4552 145.92 13.8345 145.683 14.3562C145.514 14.7301 145.33 15.0975 145.149 15.4692C144.687 16.4205 144.2 17.36 144.064 18.4345C144.015 18.8191 143.866 19.193 143.736 19.5635C143.534 20.1431 143.368 20.7302 143.379 21.3483C143.386 21.7704 143.293 22.1626 143.104 22.5417C142.849 23.0559 142.781 23.5917 142.895 24.1647C143.024 24.8076 142.823 25.0358 142.177 25.0389C141.825 25.0399 141.487 25.072 141.206 25.3067C140.959 25.5134 140.671 25.5904 140.356 25.6088C140.212 25.6172 140.066 25.6399 139.926 25.6762Z" fill="#11B0C8"/>
<path d="M41.6501 30.1978C41.0031 30.6595 40.5806 30.664 39.9249 30.2097C39.7315 30.0758 39.549 29.9269 39.3535 29.7982C39.0111 29.5713 38.6525 29.4961 38.3013 29.779C38.0885 29.9494 37.8725 29.9451 37.6455 29.8295C37.2642 29.6334 36.9076 29.7085 36.5675 29.9226C36.3073 30.0844 36.0653 30.2773 35.8006 30.4294C35.4356 30.6372 35.0974 30.4456 35.092 30.0299C35.0898 29.8904 35.118 29.7404 35.175 29.6131C35.2916 29.3518 35.43 29.1 35.5716 28.8514C35.7497 28.5407 35.9755 28.2506 36.1182 27.9248C36.4456 27.175 36.3257 26.8044 35.6657 26.3704C35.5911 26.3211 35.5155 26.274 35.3954 26.1968C35.4894 25.5026 35.9388 25.0945 36.4141 24.6992C37.0514 24.1699 37.6951 23.6471 38.3088 23.0911C38.6523 22.7794 38.8802 22.3896 38.6404 21.9032C38.9828 21.6889 39.3274 21.6074 39.698 21.6107C40.0059 21.6129 40.3138 21.6139 40.6216 21.6021C41.3994 21.5721 42.0777 21.3269 42.5552 20.682C42.7573 20.4077 42.8511 20.0949 42.6806 19.7723C42.5251 19.4757 42.2571 19.3407 41.9181 19.3556C41.3228 19.3812 40.7266 19.3899 40.1336 19.4424C39.8646 19.467 39.6474 19.4692 39.4563 19.241C39.2468 18.9914 38.9551 18.9089 38.6255 18.9293C37.8078 18.9818 37.0689 19.2539 36.4435 19.7746C36.2502 19.9353 36.0589 20.1977 36.0276 20.4344C35.9509 21.0321 35.6203 21.3108 35.0642 21.4103L34.8059 21.4895C33.7236 21.797 33.366 22.2329 33.2179 23.3256C33.1573 23.782 33.0958 24.2737 32.8842 24.6679C32.5816 25.225 32.423 25.7874 32.3884 26.4054C32.3667 26.8137 32.2069 27.1661 31.9261 27.4701C31.7306 27.6811 31.5092 27.8858 31.3796 28.1356C31.2088 28.4623 31.062 28.8212 31.0025 29.1832C30.9269 29.6342 31.2239 29.9286 31.682 29.9629C31.7642 29.9693 31.8462 29.964 31.9801 29.964C31.8623 30.1645 31.7446 30.3057 31.6884 30.4698C31.5792 30.7878 31.4517 31.1136 31.4237 31.4424C31.3794 31.9565 31.6256 32.1965 32.1539 32.2372C32.4065 32.2576 32.6605 32.246 32.9143 32.2513C33.4416 32.2641 33.6068 32.4366 33.5042 32.9485C33.4113 33.421 33.5063 33.828 33.9007 34.0958C34.2647 34.3456 34.3393 34.6712 34.3479 35.0644C34.3533 35.3141 34.3792 35.569 34.4493 35.808C34.5022 35.9878 34.6124 36.1679 34.742 36.3071C34.9645 36.5491 35.2756 36.5757 35.5143 36.3563C35.7205 36.1647 35.9042 35.931 36.0394 35.6846C36.2456 35.3075 36.3829 34.8918 36.5848 34.5127C36.7447 34.215 36.9315 33.9233 37.1507 33.6675C37.3419 33.4435 37.5806 33.3407 37.9209 33.4682C38.1283 33.5463 38.4233 33.495 38.6447 33.4114C38.9094 33.3119 39.1611 33.1436 39.3727 32.955C39.741 32.6241 40.1332 32.5332 40.6204 32.6135C41.7385 32.7977 42.7668 32.065 42.946 30.9573C42.9837 30.7292 42.9351 30.442 42.8175 30.246C42.5684 29.8274 42.1632 29.8315 41.6501 30.1978Z" fill="#11B0C8"/>
<path d="M128.185 27.2508C127.788 26.7763 127.691 26.3222 127.958 25.7692C128.127 25.4137 128.302 25.0526 128.407 24.6755C128.667 23.7499 128.648 22.8372 128.179 21.962C128.081 21.7788 128.034 21.557 128.013 21.3482C127.963 20.9036 127.81 20.5339 127.477 20.2095C126.889 19.6353 126.256 19.1564 125.467 18.8811C124.38 18.504 123.371 18.6294 122.531 19.3973C121.99 19.8912 121.573 20.5157 121.093 21.0738C120.944 21.2463 120.781 21.4231 120.592 21.5431C119.75 22.0734 119.094 22.7385 118.93 23.7585C118.833 24.3552 118.622 24.8724 118.215 25.3492C117.692 25.9619 117.65 26.883 118.099 27.4543C118.692 28.2094 118.799 29.0428 118.679 29.947C118.631 30.3016 118.608 30.6593 118.567 31.0913C118.613 31.4125 118.628 31.8122 118.737 32.1849C118.863 32.6176 119.211 32.8447 119.596 32.7473C120.047 32.6315 120.36 32.8382 120.701 33.0494C120.972 33.2186 121.252 33.3771 121.546 33.5035C121.719 33.5787 121.841 33.6578 121.932 33.8346C122.222 34.3991 122.579 34.5876 123.221 34.4646C123.713 34.3692 124.184 34.1819 124.703 34.2781C124.817 34.2996 124.964 34.2557 125.068 34.1948C125.595 33.8849 126.198 33.6439 126.617 33.2251C127.364 32.4784 128.047 31.6537 128.667 30.7967C129.037 30.2846 129.311 29.6804 129.138 28.9776C128.974 28.3104 128.606 27.7576 128.185 27.2508ZM124.23 29.0741C124.498 29.6236 124.48 29.6323 124.426 30.1731C124.092 30.2054 123.742 30.2386 123.429 30.2664C123.169 29.8658 122.939 29.5069 122.705 29.1513C122.506 28.8534 122.259 28.6198 121.871 28.6381C121.585 28.651 121.487 28.4839 121.441 28.2526C121.391 28.0071 121.35 27.7587 121.299 27.5133C121.156 26.8243 121.319 26.2213 121.85 25.7543C122.37 25.2978 122.578 24.774 122.461 24.0798C122.368 23.5313 122.759 23.2045 123.228 22.9763C123.147 23.3213 123.059 23.6651 122.991 24.0122C122.85 24.7172 123.146 25.2334 123.72 25.6213C123.855 25.7123 124.003 25.7821 124.137 25.8742C124.482 26.1098 124.552 26.3091 124.42 26.7044C124.358 26.8909 124.27 27.0697 124.194 27.2529C123.942 27.8649 123.932 28.4657 124.23 29.0741Z" fill="#11B0C8"/>
<path d="M28.7372 24.2761C28.7167 23.6011 28.8334 22.9564 29.0742 22.3274C29.2526 21.8625 29.3453 21.3708 29.1185 20.9113C28.8666 20.4013 28.8085 19.8916 28.909 19.3474V19.1321C28.8808 18.7196 28.6843 18.5182 28.2663 18.4796C27.8937 18.4475 27.5512 18.5309 27.2358 18.7399C27.1256 18.8138 26.9799 18.8835 26.8545 18.8759C26.1967 18.8363 25.9514 19.0173 26.0346 19.6461C26.1232 20.3273 26.041 20.9659 25.8013 21.5978C25.7634 21.6975 25.7537 21.8067 25.731 21.9128C25.6488 22.2995 25.7028 22.6294 26.1123 22.8128C26.3727 22.9295 26.4331 23.1587 26.3889 23.3977C26.3467 23.6228 26.2528 23.8401 26.1663 24.0544C26.0194 24.4209 25.8379 24.7743 25.7116 25.1459C25.5053 25.7577 25.5691 26.3191 26.1243 26.7432C26.3414 26.9093 26.4536 27.1266 26.4417 27.3944C26.418 27.9302 26.4168 28.4691 26.3424 28.9982C26.2928 29.3602 26.2246 29.7128 26.3867 30.0525C26.5346 30.361 26.5585 30.6749 26.4829 30.9963C26.391 31.3905 26.4742 31.7439 26.6946 32.0708C26.8944 32.3655 26.9668 32.69 26.9571 33.0413C26.9507 33.3639 26.956 33.6874 26.956 34.0108H26.941C26.941 34.3878 26.929 34.7659 26.9443 35.1432C26.9626 35.5995 27.0652 36.0365 27.3979 36.3783C27.7662 36.7554 28.206 36.7113 28.488 36.2722C28.5623 36.1523 28.6317 36.012 28.6466 35.8747C28.6952 35.4496 28.7687 35.0167 28.7374 34.5936C28.6649 33.5694 28.7687 32.5884 29.2677 31.669C29.353 31.5149 29.3789 31.3294 29.4427 31.1611C29.7138 30.4606 29.6296 29.789 29.2786 29.1387L29.2279 29.0432C29.0507 28.694 29.0571 28.3598 29.2732 28.0213C29.4471 27.7492 29.5779 27.4481 29.7604 27.1814C30.1742 26.5826 30.1157 25.8069 29.3099 25.3389C28.8625 25.0795 28.7502 24.7302 28.7372 24.2761Z" fill="#11B0C8"/>
<path d="M26.6524 16.5373C27.0759 16.8801 27.5695 17.0045 28.076 16.8223C28.5988 16.6348 28.8506 16.1998 28.8916 15.6525C28.9466 14.9177 29.0525 14.1979 29.2306 13.479C29.4218 12.7056 28.9466 12.2266 28.0759 12.3467C28.1224 12.0874 28.1698 11.8819 28.1937 11.6729C28.2695 11.0538 27.8091 10.4775 27.2626 10.5396C26.8457 10.5868 26.4578 10.7389 26.1618 11.0646C25.8312 11.4288 25.7156 11.9975 25.9869 12.4069C26.23 12.7691 26.1587 13.0592 25.9739 13.3989C25.7848 13.7449 25.6056 14.1038 25.49 14.4766C25.3354 14.9834 25.4003 15.4782 25.826 15.8576C26.0929 16.0938 26.3758 16.3132 26.6524 16.5373Z" fill="#11B0C8"/>
<path d="M150.063 45.0582V45.1613H149.764V45.9347H149.643V45.1613H149.344V45.0582" fill="#11B0C8"/>
<path d="M150.145 45.0582H150.316L150.572 45.7987L150.826 45.0582H150.995V45.9347H150.883V45.4218L150.884 45.3274V45.1955L150.63 45.9347H150.512L150.252 45.1955V45.2214L150.259 45.3199V45.9347H150.145" fill="#11B0C8"/>
</g>
<defs>
<clipPath id="clip0_1_6">
<rect width="173" height="50.2795" fill="white"/>
</clipPath>
</defs>
</svg>
